<?xml version="1.0" encoding="utf-8"?>
<svg xmlns="http://www.w3.org/2000/svg" viewBox="0 200 324.923 100" width="324.923px" height="100px"><style>.impui-wordmark{fill:rgb(45, 45, 45)}@media (prefers-color-scheme: dark){.impui-wordmark{fill:#fff}}</style><defs><linearGradient gradientUnits="userSpaceOnUse" x1="250.685" y1="199.698" x2="250.685" y2="300" id="gradient-1" gradientTransform="matrix(1, 0, 0, 1, -17.911064, 0.000244)"><stop offset="0" style="stop-color: rgb(255, 0, 0)"/><stop offset="1" style="stop-color: rgb(64.913% 0% 0%)"/></linearGradient><linearGradient gradientUnits="userSpaceOnUse" x1="50" y1="200" x2="50" y2="293.129" id="gradient-0"><stop offset="0" style="stop-color: rgb(255, 0, 0)"/><stop offset="1" style="stop-color: rgb(64.913% 0% 0%)"/></linearGradient></defs><g id="object-0"><path d="M 123.954 279.402 L 123.954 225 L 134.939 225 L 134.939 279.402 Z M 145.247 279.402 L 145.247 225 L 161.686 225 L 171.558 262.109 L 181.317 225 L 197.794 225 L 197.794 279.402 L 187.589 279.402 L 187.589 236.578 L 176.79 279.402 L 166.214 279.402 L 155.452 236.578 L 155.452 279.402 Z M 208.697 279.402 L 208.697 225 L 226.324 225 Q 236.344 225 239.387 225.816 Q 244.062 227.041 247.217 231.141 Q 250.371 235.242 250.371 241.736 Q 250.371 246.746 248.553 250.16 Q 246.734 253.574 243.933 255.522 Q 241.131 257.47 238.236 258.101 Q 234.303 258.88 226.844 258.88 L 219.682 258.88 L 219.682 279.402 Z M 219.682 234.203 L 219.682 249.64 L 225.693 249.64 Q 232.187 249.64 234.377 248.787 Q 236.566 247.933 237.81 246.115 Q 239.053 244.297 239.053 241.884 Q 239.053 238.916 237.309 236.986 Q 235.564 235.056 232.893 234.574 Q 230.926 234.203 224.988 234.203 Z" class="impui-wordmark" style="text-wrap-mode: nowrap;"/><path d="M 259.326 225 L 270.31 225 L 270.31 254.464 Q 270.31 261.478 270.718 263.556 Q 271.424 266.896 274.077 268.919 Q 276.73 270.941 281.332 270.941 Q 286.008 270.941 288.383 269.03 Q 290.758 267.119 291.24 264.336 Q 291.722 261.552 291.722 255.095 L 291.722 225 L 302.707 225 L 302.707 253.574 Q 302.707 263.371 301.816 267.416 Q 300.926 271.461 298.532 274.244 Q 296.138 277.027 292.131 278.678 Q 288.123 280.33 281.666 280.33 Q 273.873 280.33 269.846 278.53 Q 265.82 276.73 263.482 273.854 Q 261.144 270.978 260.402 267.824 Q 259.326 263.148 259.326 254.019 Z M 313.939 279.402 L 313.939 225 L 324.923 225 L 324.923 279.402 Z" style="fill: url(&quot;#gradient-1&quot;); text-wrap-mode: nowrap;"/><ellipse style="stroke-width: 6px; fill: rgb(255, 255, 255);" cx="50" cy="250" rx="50" ry="50"/><path d="M 100 250 C 100 268.378 90.085 284.44 75.313 293.129 C 75.964 291.683 76.508 290.166 76.931 288.584 C 77.971 284.734 78.223 280.712 77.673 276.763 C 83.045 271.696 87.112 265.098 89.164 257.443 C 92.904 243.49 89.053 229.684 79.926 219.801 C 81.341 225.476 81.465 231.51 79.748 237.919 C 77.498 246.311 72.755 253.245 66.851 257.698 C 63.628 255.104 59.897 253.213 55.9 252.147 C 48.396 250.137 40.786 251.191 34.406 254.526 C 28.302 247.044 25.837 235.627 28.878 224.281 C 30.519 218.157 33.287 213.03 37.091 208.903 C 24.784 213.149 14.565 222.965 10.94 236.486 C 7.354 249.869 10.967 263.575 19.36 273.462 C 17.958 278.879 18.123 284.561 19.805 289.856 C 7.772 280.725 0 266.27 0 250 C 0 222.386 22.386 200 50 200 C 77.614 200 100 222.386 100 250 Z" style="fill: url(&quot;#gradient-0&quot;);"/></g></svg>